<svg width="52" height="50" viewBox="0 0 52 50" fill="none" xmlns="http://www.w3.org/2000/svg">
<path d="M34.0566 50H33.7402C22.932 50 17.7227 45.74 16.822 36.1977C16.7246 35.1996 17.4549 34.2989 18.4773 34.2016C19.4753 34.1042 20.376 34.8588 20.4734 35.8569C21.1793 43.5005 24.782 46.3486 33.7645 46.3486H34.081C43.9884 46.3486 47.4938 42.8432 47.4938 32.9358V17.0642C47.4938 7.15676 43.9884 3.65141 34.081 3.65141H33.7645C24.7334 3.65141 21.1306 6.54819 20.4734 14.3379C20.3517 15.3359 19.524 16.0905 18.4773 15.9932C17.4549 15.9201 16.7246 15.0195 16.7976 14.0214C17.6253 4.333 22.859 0 33.7402 0H34.0566C46.0089 0 51.1209 5.11197 51.1209 17.0642V32.9358C51.1209 44.888 46.0089 50 34.0566 50Z" fill="#F5F5F5"/>
<path d="M33.1791 26.8257H1.8257C0.827652 26.8257 0 25.9981 0 25C0 24.002 0.827652 23.1743 1.8257 23.1743H33.1791C34.1772 23.1743 35.0048 24.002 35.0048 25C35.0048 25.9981 34.2015 26.8257 33.1791 26.8257Z" fill="#F5F5F5"/>
<path d="M27.7502 34.9808C27.2877 34.9808 26.8251 34.8104 26.46 34.4452C25.7541 33.7393 25.7541 32.5708 26.46 31.8649L33.3246 25.0003L26.46 18.1356C25.7541 17.4297 25.7541 16.2612 26.46 15.5553C27.1659 14.8493 28.3344 14.8493 29.0403 15.5553L37.1951 23.7101C37.9011 24.416 37.9011 25.5845 37.1951 26.2904L29.0403 34.4452C28.6752 34.8104 28.2127 34.9808 27.7502 34.9808Z" fill="#F5F5F5"/>
</svg>
