<svg width="30" height="30" viewBox="0 0 30 30" fill="none" xmlns="http://www.w3.org/2000/svg">
<path d="M19.986 29.3422H19.8002C13.4575 29.3422 10.4005 26.8423 9.87191 21.2424C9.81477 20.6567 10.2433 20.1281 10.8433 20.071C11.429 20.0138 11.9576 20.4567 12.0147 21.0424C12.429 25.528 14.5432 27.1994 19.8145 27.1994H20.0002C25.8144 27.1994 27.8715 25.1423 27.8715 19.3281V10.014C27.8715 4.1999 25.8144 2.14281 20.0002 2.14281H19.8145C14.5147 2.14281 12.4004 3.84277 12.0147 8.41409C11.9433 8.99979 11.4576 9.44263 10.8433 9.38549C10.2433 9.34264 9.81477 8.81408 9.85763 8.22838C10.3433 2.5428 13.4147 0 19.8002 0H19.986C27.0001 0 30 2.99993 30 10.014V19.3281C30 26.3423 27.0001 29.3422 19.986 29.3422Z" fill="#F5F5F5"/>
<path d="M19.471 15.7425H1.0714C0.485703 15.7425 0 15.2568 0 14.6711C0 14.0854 0.485703 13.5997 1.0714 13.5997H19.471C20.0567 13.5997 20.5424 14.0854 20.5424 14.6711C20.5424 15.2568 20.0709 15.7425 19.471 15.7425Z" fill="#F5F5F5"/>
<path d="M16.285 20.5282C16.0136 20.5282 15.7422 20.4282 15.5279 20.214C15.1136 19.7997 15.1136 19.114 15.5279 18.6997L19.5563 14.6712L15.5279 10.6428C15.1136 10.2285 15.1136 9.54278 15.5279 9.1285C15.9421 8.71423 16.6278 8.71423 17.0421 9.1285L21.8277 13.9141C22.242 14.3284 22.242 15.0141 21.8277 15.4284L17.0421 20.214C16.8278 20.4282 16.5564 20.5282 16.285 20.5282Z" fill="#F5F5F5"/>
</svg>
