<svg width="47" height="40" viewBox="0 0 47 40" fill="none" xmlns="http://www.w3.org/2000/svg">
<path d="M45.7945 16.322H41.1961V11.5202C41.1961 10.8599 40.6788 10.3197 40.0465 10.3197H37.7473C37.115 10.3197 36.5977 10.8599 36.5977 11.5202V16.322H31.9992C31.3669 16.322 30.8496 16.8622 30.8496 17.5225V19.9234C30.8496 20.5837 31.3669 21.1239 31.9992 21.1239H36.5977V25.9257C36.5977 26.586 37.115 27.1262 37.7473 27.1262H40.0465C40.6788 27.1262 41.1961 26.586 41.1961 25.9257V21.1239H45.7945C46.4268 21.1239 46.9442 20.5837 46.9442 19.9234V17.5225C46.9442 16.8622 46.4268 16.322 45.7945 16.322ZM17.0543 19.9234C22.1341 19.9234 26.2512 15.6242 26.2512 10.3197C26.2512 5.01516 22.1341 0.716003 17.0543 0.716003C11.9744 0.716003 7.85738 5.01516 7.85738 10.3197C7.85738 15.6242 11.9744 19.9234 17.0543 19.9234ZM23.4921 22.3243H22.2922C20.6971 23.0896 18.9224 23.5248 17.0543 23.5248C15.1862 23.5248 13.4186 23.0896 11.8164 22.3243H10.6164C5.28513 22.3243 0.959717 26.8411 0.959717 32.4082V35.5294C0.959717 37.5177 2.50451 39.1308 4.40855 39.1308H29.7C31.604 39.1308 33.1488 37.5177 33.1488 35.5294V32.4082C33.1488 26.8411 28.8234 22.3243 23.4921 22.3243Z" fill="#F5F5F5"/>
</svg>
