<svg width="47" height="40" viewBox="0 0 47 40" fill="none" xmlns="http://www.w3.org/2000/svg">
<path d="M45.7945 16.3221H41.196V11.5202C41.196 10.86 40.6787 10.3198 40.0464 10.3198H37.7472C37.1149 10.3198 36.5976 10.86 36.5976 11.5202V16.3221H31.9992C31.3669 16.3221 30.8495 16.8623 30.8495 17.5225V19.9235C30.8495 20.5837 31.3669 21.1239 31.9992 21.1239H36.5976V25.9258C36.5976 26.586 37.1149 27.1262 37.7472 27.1262H40.0464C40.6787 27.1262 41.196 26.586 41.196 25.9258V21.1239H45.7945C46.4268 21.1239 46.9441 20.5837 46.9441 19.9235V17.5225C46.9441 16.8623 46.4268 16.3221 45.7945 16.3221ZM17.0542 19.9235C22.1341 19.9235 26.2511 15.6243 26.2511 10.3198C26.2511 5.01522 22.1341 0.716064 17.0542 0.716064C11.9744 0.716064 7.85732 5.01522 7.85732 10.3198C7.85732 15.6243 11.9744 19.9235 17.0542 19.9235ZM23.492 22.3244H22.2921C20.697 23.0897 18.9223 23.5248 17.0542 23.5248C15.1861 23.5248 13.4186 23.0897 11.8163 22.3244H10.6164C5.28507 22.3244 0.959656 26.8411 0.959656 32.4083V35.5295C0.959656 37.5177 2.50445 39.1309 4.40849 39.1309H29.6999C31.604 39.1309 33.1488 37.5177 33.1488 35.5295V32.4083C33.1488 26.8411 28.8234 22.3244 23.492 22.3244Z" fill="#F5F5F5"/>
</svg>
